<svg width="512" height="512" viewBox="0 0 512 512" fill="none" xmlns="http://www.w3.org/2000/svg">
<path d="M492.77 25.1062C530.894 62.6167 503.589 152.276 485.558 252.914C468.042 353.552 459.799 465.169 398.492 499.477C337.185 534.243 222.3 491.243 145.538 436.35C68.2604 381.456 29.1066 314.212 10.5601 242.85C-7.47131 171.489 -4.8954 96.0103 37.8647 57.5848C80.6248 18.7019 162.539 17.3296 256.302 9.55303C349.55 1.31901 454.132 -12.8618 492.77 25.1062Z" fill="#F43F5E"/>
<path fill-rule="evenodd" clip-rule="evenodd" d="M235.566 130.152C234.81 127.334 232.966 124.932 230.439 123.473C227.912 122.015 224.909 121.62 222.091 122.375C219.273 123.131 216.87 124.975 215.412 127.502C213.953 130.029 213.558 133.032 214.314 135.85L217.163 146.476C217.919 149.295 219.763 151.697 222.29 153.156C224.817 154.614 227.82 155.009 230.638 154.253C233.456 153.498 235.859 151.654 237.317 149.126C238.776 146.599 239.171 143.597 238.415 140.778L235.555 130.152H235.566ZM188.893 161.271C187.495 160.89 186.036 160.789 184.599 160.974C183.162 161.158 181.775 161.625 180.519 162.347C179.263 163.069 178.162 164.032 177.279 165.18C176.396 166.329 175.748 167.641 175.374 169.041C174.999 170.44 174.905 171.9 175.096 173.336C175.288 174.772 175.761 176.157 176.488 177.409C177.216 178.662 178.184 179.759 179.337 180.636C180.49 181.514 181.805 182.155 183.206 182.523L193.832 185.372C196.645 186.111 199.636 185.706 202.151 184.245C204.666 182.784 206.5 180.386 207.252 177.577C208.004 174.767 207.612 171.774 206.163 169.252C204.714 166.73 202.325 164.885 199.519 164.12L188.893 161.26V161.271ZM285.847 155.012C286.868 153.99 287.678 152.777 288.231 151.442C288.783 150.107 289.067 148.676 289.067 147.231C289.066 145.787 288.781 144.356 288.228 143.021C287.674 141.687 286.864 140.474 285.842 139.453C284.82 138.432 283.606 137.622 282.271 137.069C280.936 136.517 279.506 136.233 278.061 136.233C276.616 136.234 275.185 136.519 273.851 137.072C272.516 137.625 271.303 138.436 270.282 139.458L262.505 147.235C261.483 148.257 260.672 149.471 260.119 150.806C259.566 152.141 259.281 153.572 259.281 155.018C259.281 156.463 259.566 157.894 260.119 159.23C260.672 160.565 261.483 161.778 262.505 162.8C263.527 163.822 264.74 164.633 266.076 165.186C267.411 165.739 268.842 166.024 270.288 166.024C271.733 166.024 273.164 165.739 274.499 165.186C275.835 164.633 277.048 163.822 278.07 162.8L285.847 155.012V155.012ZM208.066 232.804L215.843 225.027C217.909 222.965 219.07 220.166 219.072 217.247C219.074 214.328 217.917 211.528 215.854 209.462C213.791 207.397 210.993 206.235 208.074 206.233C205.155 206.231 202.355 207.389 200.289 209.451L192.501 217.228C190.437 219.292 189.277 222.092 189.277 225.011C189.277 227.93 190.437 230.729 192.501 232.793C194.565 234.857 197.365 236.017 200.284 236.017C203.203 236.017 206.002 234.857 208.066 232.793V232.804ZM243.266 175.923C241.267 175.123 239.077 174.927 236.968 175.36C234.859 175.793 232.923 176.835 231.4 178.357C229.878 179.88 228.835 181.816 228.403 183.925C227.97 186.034 228.166 188.224 228.966 190.223L272.966 300.223C273.754 302.192 275.095 303.891 276.827 305.115C278.558 306.34 280.607 307.038 282.726 307.125C284.845 307.212 286.943 306.685 288.77 305.607C290.596 304.529 292.072 302.946 293.019 301.048L308.199 270.699L341.397 303.919C343.461 305.982 346.26 307.14 349.178 307.139C352.096 307.138 354.894 305.978 356.957 303.914C359.019 301.85 360.177 299.051 360.176 296.133C360.175 293.215 359.015 290.417 356.951 288.354L323.742 255.134L354.102 239.965C355.996 239.016 357.575 237.539 358.65 235.714C359.725 233.888 360.25 231.791 360.161 229.674C360.073 227.557 359.375 225.511 358.152 223.782C356.929 222.052 355.232 220.712 353.266 219.923L243.266 175.923V175.923Z" fill="white"/>
</svg>
