<svg width="512" height="512" viewBox="0 0 512 512" fill="none" xmlns="http://www.w3.org/2000/svg">
<path d="M380.837 55.1395C425.609 73.2623 479.26 87.3981 500.488 118.932C521.717 150.828 510.524 199.76 491.611 240.355C472.698 280.587 446.066 312.483 422.136 355.978C398.205 399.835 376.591 455.291 334.52 485.737C292.449 516.184 229.535 521.258 186.306 495.161C143.077 468.702 119.532 411.071 99.0759 364.677C78.6193 317.92 61.6364 282.4 39.6359 238.18C17.6354 193.96 -8.99674 141.404 2.96844 100.447C14.5476 59.489 65.1102 30.4925 115.287 14.5444C165.077 -1.40363 214.482 -3.94082 256.939 5.48304C299.782 14.9069 335.678 37.0167 380.837 55.1395Z" fill="#F43F5E"/>
<path d="M256 278C261.835 278 267.431 275.682 271.556 271.556C275.682 267.431 278 261.835 278 256C278 250.165 275.682 244.569 271.556 240.444C267.431 236.318 261.835 234 256 234C250.165 234 244.569 236.318 240.444 240.444C236.318 244.569 234 250.165 234 256C234 261.835 236.318 267.431 240.444 271.556C244.569 275.682 250.165 278 256 278Z" fill="white"/>
<path fill-rule="evenodd" clip-rule="evenodd" d="M151.038 256C165.052 211.373 206.742 179 256 179C305.258 179 346.948 211.373 360.962 256C346.948 300.627 305.258 333 256 333C206.742 333 165.052 300.627 151.038 256ZM300 256C300 267.67 295.364 278.861 287.113 287.113C278.861 295.364 267.67 300 256 300C244.331 300 233.139 295.364 224.887 287.113C216.636 278.861 212 267.67 212 256C212 244.33 216.636 233.139 224.887 224.887C233.139 216.636 244.331 212 256 212C267.67 212 278.861 216.636 287.113 224.887C295.364 233.139 300 244.33 300 256V256Z" fill="white"/>
</svg>
