<svg width="512" height="512" viewBox="0 0 512 512" fill="none" xmlns="http://www.w3.org/2000/svg">
<path d="M409.022 22.1543C455.738 46.3389 498.994 90.7433 509.376 143.87C519.757 196.997 496.918 258.053 483.076 327.832C469.58 397.61 464.736 475.714 429.093 500.295C393.796 524.48 327.355 495.538 261.26 495.934C194.819 495.934 128.378 525.273 82.3542 504.656C36.676 484.04 11.7607 413.072 3.10952 345.276C-5.1956 277.084 2.76346 212.063 31.4853 168.451C60.5532 124.443 110.038 102.241 151.91 76.4705C193.435 50.3036 227.348 20.5684 269.565 7.48495C311.783 -5.59851 362.306 -2.03029 409.022 22.1543Z" fill="#F43F5E"/>
<g clip-path="url(#clip0)">
<path d="M256 175.828C285.37 175.828 288.853 175.938 300.458 176.469C330.268 177.826 344.192 191.97 345.549 221.56C346.081 233.156 346.182 236.639 346.182 266.009C346.182 295.388 346.072 298.863 345.549 310.458C344.183 340.021 330.296 354.192 300.458 355.549C288.853 356.081 285.388 356.191 256 356.191C226.63 356.191 223.147 356.081 211.551 355.549C181.668 354.183 167.817 339.975 166.46 310.449C165.928 298.853 165.818 295.379 165.818 266C165.818 236.63 165.938 233.156 166.46 221.551C167.826 191.97 181.713 177.817 211.551 176.46C223.156 175.938 226.63 175.828 256 175.828V175.828ZM256 156C226.126 156 222.386 156.128 210.653 156.66C170.704 158.493 148.503 180.658 146.669 220.643C146.128 232.386 146 236.126 146 266C146 295.874 146.128 299.623 146.66 311.357C148.493 351.305 170.658 373.507 210.643 375.34C222.386 375.872 226.126 376 256 376C285.874 376 289.623 375.872 301.357 375.34C341.268 373.507 363.525 351.342 365.331 311.357C365.872 299.623 366 295.874 366 266C366 236.126 365.872 232.386 365.34 220.653C363.543 180.741 341.351 158.503 301.366 156.669C289.623 156.128 285.874 156 256 156V156ZM256 209.515C224.806 209.515 199.515 234.806 199.515 266C199.515 297.194 224.806 322.494 256 322.494C287.194 322.494 312.485 297.203 312.485 266C312.485 234.806 287.194 209.515 256 209.515ZM256 302.667C235.751 302.667 219.333 286.258 219.333 266C219.333 245.751 235.751 229.333 256 229.333C276.249 229.333 292.667 245.751 292.667 266C292.667 286.258 276.249 302.667 256 302.667ZM314.722 194.088C307.425 194.088 301.513 200 301.513 207.287C301.513 214.575 307.425 220.488 314.722 220.488C322.009 220.488 327.913 214.575 327.913 207.287C327.913 200 322.009 194.088 314.722 194.088Z" fill="white"/>
</g>
<defs>
<clipPath id="clip0">
<rect width="220" height="220" fill="white" transform="translate(146 156)"/>
</clipPath>
</defs>
</svg>
